<?xml version="1.0" encoding="UTF-8"?>
<svg version="1.1" xmlns="http://www.w3.org/2000/svg" width="123" height="118">
<path d="M0 0 C4.57765109 3.74535089 8.78615883 7.73408807 12.9375 11.9375 C16.98126164 16.03172981 21.08421257 19.97015497 25.4765625 23.6953125 C26.69958301 24.74271981 27.86139532 25.86139532 29 27 C32.36311394 26.68067403 33.87189095 25.40850701 36.0625 22.9375 C37.53515625 21.27734375 37.53515625 21.27734375 39 20 C42 20 42 20 44.4375 22.375 C45.7059375 23.674375 45.7059375 23.674375 47 25 C48.31230016 25.70717079 49.64280712 26.3833561 51 27 C60.48328522 18.14481329 69.91302242 9.26361429 79 0 C83.13621084 3.3810038 86.81316569 6.66590534 90 11 C89.55269531 11.37511719 89.10539062 11.75023437 88.64453125 12.13671875 C87.73767578 12.90435547 87.73767578 12.90435547 86.8125 13.6875 C86.22082031 14.18636719 85.62914063 14.68523438 85.01953125 15.19921875 C82.57875494 17.37561697 80.29985168 19.67430729 78 22 C76.67125687 23.33011068 75.34176699 24.65947561 74.01171875 25.98828125 C73.30595703 26.69404297 72.60019531 27.39980469 71.87304688 28.12695312 C68.58203125 31.41796875 65.29101563 34.70898437 62 38 C66.75779351 43.72159091 71.85198431 49.00279026 77.125 54.25 C77.92292969 55.05179688 78.72085938 55.85359375 79.54296875 56.6796875 C80.31511719 57.45054688 81.08726563 58.22140625 81.8828125 59.015625 C82.57777832 59.70946289 83.27274414 60.40330078 83.98876953 61.11816406 C85.90292366 62.90916916 87.87219333 64.47255795 90 66 C89.45015228 69.87511727 87.72444669 71.59576506 84.9375 74.25 C83.83728516 75.30960938 83.83728516 75.30960938 82.71484375 76.390625 C82.14894531 76.92171875 81.58304687 77.4528125 81 78 C77.51345524 76.5158627 75.35808928 74.53785948 72.75 71.8125 C69.9210408 68.91420356 67.07979145 66.1301419 64 63.5 C59.42232123 59.57759379 55.21620626 55.30404389 51 51 C46.60690687 52.58003686 44.17581688 54.55197024 41 58 C38.07898986 56.80995883 36.70053772 55.67807805 34.5 53.3125 C33.675 52.549375 32.85 51.78625 32 51 C27.43785395 51.45608821 25.05275202 54.656019 22.0625 57.8203125 C20.90910739 59.00675663 19.75545366 60.19294698 18.6015625 61.37890625 C16.79330389 63.25565204 14.98929581 65.1362212 13.19042969 67.02197266 C11.45016926 68.84047367 9.69497159 70.64346318 7.9375 72.4453125 C7.4019751 73.01605499 6.8664502 73.58679749 6.31469727 74.17483521 C4.77734375 75.74267578 4.77734375 75.74267578 2 78 C-1.03523202 77.94932448 -1.82922136 77.14740565 -4.140625 75.15234375 C-5.18476563 74.05599609 -5.18476563 74.05599609 -6.25 72.9375 C-7.30960938 71.83728516 -7.30960938 71.83728516 -8.390625 70.71484375 C-8.92171875 70.14894531 -9.4528125 69.58304687 -10 69 C-5.48509003 60.78841618 2.05785579 54.70038303 9.10546875 48.671875 C12.21537263 45.92746498 15.10923774 42.97206494 18 40 C16.64941886 36.98611927 15.14395225 34.8965323 12.8046875 32.57421875 C11.85964355 31.6311084 11.85964355 31.6311084 10.89550781 30.66894531 C10.22874023 30.01506836 9.56197266 29.36119141 8.875 28.6875 C8.19791992 28.01686523 7.52083984 27.34623047 6.82324219 26.65527344 C2.83706115 22.73032993 -1.19421346 18.89133467 -5.484375 15.296875 C-7.08562945 13.92672944 -8.59574138 12.57344641 -10 11 C-10 9 -10 9 -8.625 7.375 C-7 6 -7 6 -5 6 C-4.731875 5.38125 -4.46375 4.7625 -4.1875 4.125 C-3 2 -3 2 0 0 Z " fill="#1599C9" transform="translate(21,20)"/>
<path d="M0 0 C1.11832809 0.93719709 2.23362511 1.87801174 3.34765625 2.8203125 C3.96906494 3.34383301 4.59047363 3.86735352 5.23071289 4.40673828 C7.44469491 6.40045246 9.23780733 8.60341797 11 11 C10.55269531 11.37511719 10.10539062 11.75023437 9.64453125 12.13671875 C8.73767578 12.90435547 8.73767578 12.90435547 7.8125 13.6875 C7.22082031 14.18636719 6.62914062 14.68523438 6.01953125 15.19921875 C3.57875494 17.37561697 1.29985168 19.67430729 -1 22 C-2.32874313 23.33011068 -3.65823301 24.65947561 -4.98828125 25.98828125 C-5.69404297 26.69404297 -6.39980469 27.39980469 -7.12695312 28.12695312 C-10.41796875 31.41796875 -13.70898438 34.70898438 -17 38 C-12.24220649 43.72159091 -7.14801569 49.00279026 -1.875 54.25 C-1.07707031 55.05179688 -0.27914062 55.85359375 0.54296875 56.6796875 C1.70119141 57.83597656 1.70119141 57.83597656 2.8828125 59.015625 C3.92526123 60.05638184 3.92526123 60.05638184 4.98876953 61.11816406 C6.90292366 62.90916916 8.87219333 64.47255795 11 66 C10.45015228 69.87511727 8.72444669 71.59576506 5.9375 74.25 C4.83728516 75.30960938 4.83728516 75.30960938 3.71484375 76.390625 C3.14894531 76.92171875 2.58304688 77.4528125 2 78 C-1.48654476 76.5158627 -3.64191072 74.53785948 -6.25 71.8125 C-9.0789592 68.91420356 -11.92020855 66.1301419 -15 63.5 C-19.57767877 59.57759379 -23.78379374 55.30404389 -28 51 C-32.39309313 52.58003686 -34.82418312 54.55197024 -38 58 C-40.99220268 56.63629701 -43.29026529 55.05091917 -45.75 52.875 C-46.36359375 52.33617187 -46.9771875 51.79734375 -47.609375 51.2421875 C-48.06828125 50.83226562 -48.5271875 50.42234375 -49 50 C-44.46621595 44.42992246 -39.48102937 39.4273504 -34.31958008 34.44458008 C-32.84343598 32.99920233 -31.4171041 31.50330776 -30 30 C-30 29.34 -30 28.68 -30 28 C-28.60669398 26.80081752 -27.1551935 25.66939479 -25.6875 24.5625 C-16.39952978 17.176004 -8.29437799 8.46209757 0 0 Z " fill="#F7F9F9" transform="translate(100,20)"/>
<path d="M0 0 C5.91995422 4.89734404 11.29935495 10.21562309 16.6875 15.6875 C18.35569019 17.38125632 20.02617629 19.07275519 21.69921875 20.76171875 C22.42971436 21.50381592 23.16020996 22.24591309 23.9128418 23.01049805 C25.84855604 24.85564197 27.82533297 26.44850649 30 28 C29.45015228 31.87511727 27.72444669 33.59576506 24.9375 36.25 C23.83728516 37.30960938 23.83728516 37.30960938 22.71484375 38.390625 C22.14894531 38.92171875 21.58304688 39.4528125 21 40 C17.51345524 38.5158627 15.35808928 36.53785948 12.75 33.8125 C9.9412192 30.93498883 7.12333744 28.17010999 4.0625 25.5625 C-0.89417863 21.31677931 -5.43023998 16.65403839 -10 12 C-8.52278578 8.54798361 -6.56205999 6.35038064 -3.875 3.75 C-3.15054688 3.04359375 -2.42609375 2.3371875 -1.6796875 1.609375 C-1.12539062 1.07828125 -0.57109375 0.5471875 0 0 Z " fill="#1497C4" transform="translate(81,58)"/>
<path d="M0 0 C4.57765141 3.74535115 8.78615159 7.73409706 12.9375 11.9375 C16.94953834 15.99947036 21.02625834 19.89216596 25.375 23.59765625 C27.35097064 25.30288091 29.19292649 27.11763176 31 29 C23.88610478 37.6309795 23.88610478 37.6309795 19 40 C18.62230469 39.55011719 18.24460937 39.10023437 17.85546875 38.63671875 C10.73238599 30.31255411 3.01632038 22.52230541 -5.34375 15.4375 C-6.98412996 14.013774 -8.55397089 12.62237412 -10 11 C-10 9 -10 9 -8.625 7.375 C-7 6 -7 6 -5 6 C-4.731875 5.38125 -4.46375 4.7625 -4.1875 4.125 C-3 2 -3 2 0 0 Z " fill="#F7F8F8" transform="translate(21,20)"/>
<path d="M0 0 C1.9375 0.1875 1.9375 0.1875 4 1 C4.28875 1.639375 4.5775 2.27875 4.875 2.9375 C6.52697649 5.96612356 8.77899612 5.9469795 12 7 C14.15624526 8.53669063 16.03078334 10.21832779 18 12 C17.45015228 15.87511727 15.72444669 17.59576506 12.9375 20.25 C12.20402344 20.95640625 11.47054687 21.6628125 10.71484375 22.390625 C10.14894531 22.92171875 9.58304688 23.4528125 9 24 C5.34858644 22.4744094 3.09881888 20.27519091 0.375 17.4375 C-2.51070681 14.30957946 -2.51070681 14.30957946 -6 12 C-6.43898615 6.64436896 -6.43898615 6.64436896 -6 4 C-3.5625 2.0625 -3.5625 2.0625 -1 1 C-0.67 0.67 -0.34 0.34 0 0 Z " fill="#139DCF" transform="translate(93,74)"/>
<path d="M0 0 C1.32 0.33 2.64 0.66 4 1 C3.835 1.598125 3.67 2.19625 3.5 2.8125 C2.8885876 5.11344336 2.8885876 5.11344336 3 8 C3 8.66 3 9.32 3 10 C0 12 0 12 -3 12 C-3 12.66 -3 13.32 -3 14 C-6.7952131 12.50902342 -8.61042731 10.24299151 -11 7 C-9 4 -9 4 -6.8359375 3.26953125 C-6.02382812 3.11871094 -5.21171875 2.96789062 -4.375 2.8125 C-3.55773437 2.65394531 -2.74046875 2.49539062 -1.8984375 2.33203125 C-0.95871094 2.16767578 -0.95871094 2.16767578 0 2 C0 1.34 0 0.68 0 0 Z " fill="#119DD2" transform="translate(22,81)"/>
<path d="M0 0 C4.52615993 3.67832017 8.39424999 7.41086363 12 12 C10.35 12 8.7 12 7 12 C6.34 10.35 5.68 8.7 5 7 C2.03824877 7.61277612 0.61941217 8.25372522 -2 10 C-2 7 -2 7 0 5 C0.16687448 2.41645782 0.16687448 2.41645782 0 0 Z " fill="#0F90B8" transform="translate(91,68)"/>
<path d="M0 0 C0 0.66 0 1.32 0 2 C-1.40186828 2.88898964 -2.80512694 3.77585316 -4.21484375 4.65234375 C-7.04310571 6.78746492 -9.10143805 9.52505894 -11.2890625 12.29296875 C-13.19118564 14.19074915 -14.37781162 14.61640476 -17 15 C-13.72200975 11.0664117 -10.3675398 7.24896457 -6.8125 3.5625 C-6.15894531 2.88316406 -5.50539063 2.20382813 -4.83203125 1.50390625 C-3 0 -3 0 0 0 Z " fill="#E6FDFE" transform="translate(71,52)"/>
<path d="M0 0 C0.99 0.66 1.98 1.32 3 2 C2.45015228 5.87511727 0.72444669 7.59576506 -2.0625 10.25 C-2.79597656 10.95640625 -3.52945313 11.6628125 -4.28515625 12.390625 C-4.85105469 12.92171875 -5.41695313 13.4528125 -6 14 C-9.875 12.25 -9.875 12.25 -11 10 C-10.05125 10.061875 -9.1025 10.12375 -8.125 10.1875 C-6.578125 10.0946875 -6.578125 10.0946875 -5 10 C-4.34 9.01 -3.68 8.02 -3 7 C-2.34 7 -1.68 7 -1 7 C-0.67 4.69 -0.34 2.38 0 0 Z " fill="#1EBFE4" transform="translate(108,84)"/>
<path d="M0 0 C0.33 1.32 0.66 2.64 1 4 C1.99 4 2.98 4 4 4 C4 3.34 4 2.68 4 2 C4.99 1.67 5.98 1.34 7 1 C7 2.32 7 3.64 7 5 C6.34 5 5.68 5 5 5 C5.33 6.65 5.66 8.3 6 10 C2.2047869 8.50902342 0.38957269 6.24299151 -2 3 C-1.34 2.01 -0.68 1.02 0 0 Z " fill="#24A0D3" transform="translate(13,85)"/>
<path d="M0 0 C1.9375 0.3125 1.9375 0.3125 4 1 C4.33 1.99 4.66 2.98 5 4 C2.69 5.98 0.38 7.96 -2 10 C-1.67 8.68 -1.34 7.36 -1 6 C-0.34 6 0.32 6 1 6 C0.67 4.02 0.34 2.04 0 0 Z " fill="#1B8DB4" transform="translate(66,46)"/>
<path d="M0 0 C0.226875 0.515625 0.45375 1.03125 0.6875 1.5625 C2.4975553 4.92403127 4.73996404 7.92911144 7 11 C3.78956118 9.61811547 1.95063635 8.07578097 -0.25 5.375 C-0.77078125 4.74335937 -1.2915625 4.11171875 -1.828125 3.4609375 C-2.21484375 2.97882813 -2.6015625 2.49671875 -3 2 C-2.01 2 -1.02 2 0 2 C0 1.34 0 0.68 0 0 Z " fill="#0C8BA8" transform="translate(78,71)"/>
<path d="M0 0 C1.98 0 3.96 0 6 0 C4.02 2.31 2.04 4.62 0 7 C-1 3 -1 3 0 0 Z " fill="#1F95BE" transform="translate(58,56)"/>
<path d="M0 0 C2.31 1.98 4.62 3.96 7 6 C3 7 3 7 1 6 C0.375 2.9375 0.375 2.9375 0 0 Z " fill="#1485AE" transform="translate(96,73)"/>
<path d="M0 0 C0 0.66 0 1.32 0 2 C-1.53125 3.2890625 -1.53125 3.2890625 -3.5 4.625 C-4.1496875 5.07101563 -4.799375 5.51703125 -5.46875 5.9765625 C-5.9740625 6.31429687 -6.479375 6.65203125 -7 7 C-7.66 6.67 -8.32 6.34 -9 6 C-8.07213211 4.99105628 -7.13231567 3.99309093 -6.1875 3 C-5.66542969 2.443125 -5.14335938 1.88625 -4.60546875 1.3125 C-3 0 -3 0 0 0 Z " fill="#DAF8FE" transform="translate(71,52)"/>
<path d="M0 0 C0.66 0.33 1.32 0.66 2 1 C0.02 3.31 -1.96 5.62 -4 8 C-4.66 7.01 -5.32 6.02 -6 5 C-5.195625 4.731875 -4.39125 4.46375 -3.5625 4.1875 C-2.716875 3.795625 -1.87125 3.40375 -1 3 C-0.67 2.01 -0.34 1.02 0 0 Z " fill="#D1F3F9" transform="translate(50,48)"/>
<path d="M0 0 C0.66 0 1.32 0 2 0 C1.42655063 2.86724686 1.1385485 3.8614515 -1 6 C-1.99 6 -2.98 6 -4 6 C-2.84826645 3.53199953 -1.95216435 1.95216435 0 0 Z " fill="#2592BB" transform="translate(55,45)"/>
<path d="M0 0 C-3.465 2.97 -3.465 2.97 -7 6 C-6.75 3.625 -6.75 3.625 -6 1 C-2.69333333 -1.34666667 -2.69333333 -1.34666667 0 0 Z " fill="#268FB1" transform="translate(32,89)"/>
<path d="M0 0 C2.64 0 5.28 0 8 0 C6.515 1.98 6.515 1.98 5 4 C1.125 2.25 1.125 2.25 0 0 Z " fill="#33BFDE" transform="translate(97,94)"/>
</svg>
