<?xml version="1.0" encoding="UTF-8"?>
<svg id="Calque_1" xmlns="http://www.w3.org/2000/svg" version="1.1" xmlns:xlink="http://www.w3.org/1999/xlink" viewBox="0 0 41 41">
  <!-- Generator: Adobe Illustrator 29.2.1, SVG Export Plug-In . SVG Version: 2.1.0 Build 116)  -->
  <defs>
    <style>
      .st0 {
        fill: #142220;
        fill-rule: evenodd;
      }

      .st1 {
        fill: none;
      }

      .st2 {
        display: none;
      }

      .st3 {
        clip-path: url(#clippath);
      }
    </style>
    <clipPath id="clippath">
      <rect class="st1" width="41" height="41"/>
    </clipPath>
  </defs>
  <g class="st2">
    <g class="st3">
      <g id="Frame">
        <path id="Vector" class="st0" d="M26.4,35.1l-2.9-2.9,2.9-2.9,2.9-2.9,2.9-2.9,2.9-2.9-.3-.3-2.6-2.6-1.5-1.5-1.5-1.5-2.9-2.9,1.1-1.1,1.9-1.9,2-2,1-1,2.9,2.9-1,1-2,2,1.5,1.5,1.5,1.5,2.9,2.9,2.9,2.9-2.9,2.9-2.9,2.9-2.9,2.9-2.9,2.9-2.9,2.9ZM23.4,38.1l-2.9-2.9-2.9,2.9,2.9,2.9,2.9-2.9ZM17.6,2.9l2.9-2.9,2.9,2.9,2.9,2.9-2.9,2.9-2.9-2.9-2.9,2.9-2.9-2.9,2.9-2.9ZM8.8,11.7l-1.5-1.5-1.5-1.5,2.9-2.9,1.5,1.5,1.5,1.5,1.5,1.5,1.5,1.5-2.9,2.9-2.9,2.9-2.9,2.9,2.9,2.9,2.9,2.9,2.9,2.9,2.9-2.9,2.9-2.9,2.9-2.9-2.9-2.9-2.9,2.9-2.9,2.9-2.9-2.9,2.9-2.9,2.9-2.9,2.9-2.9,2.9,2.9,2.9,2.9,2.9,2.9-2.9,2.9-2.9,2.9-2.9,2.9-2.9,2.9-2.9,2.9-2.9-2.9-2.9-2.9-2.9-2.9-2.9-2.9L0,20.5l2.9-2.9,2.9-2.9,2.9-2.9Z"/>
      </g>
    </g>
  </g>
  <image width="720" height="720" transform="translate(.1 .6) scale(0)" xlink:href="../../../../../Users/EEIA/Downloads/XTOP.png"/>
</svg>